<svg xmlns="http://www.w3.org/2000/svg" xmlns:xlink="http://www.w3.org/1999/xlink" width="480" zoomAndPan="magnify" viewBox="0 0 360 137.999998" height="184" preserveAspectRatio="xMidYMid meet" version="1.2"><defs><clipPath id="0e18b9851e"><path d="M 190.851562 12.957031 L 220.101562 12.957031 L 220.101562 42.207031 L 190.851562 42.207031 Z M 190.851562 12.957031 "/></clipPath></defs><g id="698c60cc08"><g style="fill:#ff3131;fill-opacity:1;"><g transform="translate(17.715605, 94.433434)"><path style="stroke:none" d="M 16.875 22.390625 C 15.445312 22.390625 14.285156 21.898438 13.390625 20.921875 C 12.503906 19.953125 12.0625 18.75 12.0625 17.3125 C 12.0625 15.757812 12.546875 14.09375 13.515625 12.3125 C 14.492188 10.53125 15.757812 8.75 17.3125 6.96875 C 14.664062 5.425781 12.550781 3.519531 10.96875 1.25 C 9.394531 -1.019531 8.609375 -3.617188 8.609375 -6.546875 C 8.609375 -10.734375 10.226562 -14.191406 13.46875 -16.921875 C 16.71875 -19.648438 21.097656 -21.300781 26.609375 -21.875 L 26.609375 -27.46875 C 22.648438 -27.757812 19.59375 -28.378906 17.4375 -29.328125 C 15.28125 -30.273438 14.203125 -31.351562 14.203125 -32.5625 C 14.203125 -33.757812 15.289062 -34.875 17.46875 -35.90625 C 19.65625 -36.945312 22.675781 -37.664062 26.53125 -38.0625 C 26.46875 -41.738281 26.160156 -44.304688 25.609375 -45.765625 C 25.066406 -47.234375 24.140625 -48.195312 22.828125 -48.65625 L 22.828125 -48.921875 C 23.972656 -49.035156 25.40625 -49.394531 27.125 -50 C 28.851562 -50.601562 30.535156 -51.363281 32.171875 -52.28125 C 33.804688 -53.195312 35.023438 -54.085938 35.828125 -54.953125 L 36.09375 -54.78125 C 35.34375 -53.625 34.96875 -50.320312 34.96875 -44.875 L 34.96875 -38.234375 C 37.207031 -38.117188 39.332031 -37.875 41.34375 -37.5 C 43.351562 -37.132812 45.25 -36.664062 47.03125 -36.09375 C 49.09375 -38.445312 50.125 -41.226562 50.125 -44.4375 C 50.125 -47.476562 49.203125 -50.046875 47.359375 -52.140625 C 45.523438 -54.242188 43.128906 -55.835938 40.171875 -56.921875 C 37.210938 -58.015625 34.097656 -58.5625 30.828125 -58.5625 C 27.441406 -58.5625 24.285156 -58.015625 21.359375 -56.921875 C 18.429688 -55.835938 16.078125 -54.375 14.296875 -52.53125 C 12.515625 -50.695312 11.625 -48.6875 11.625 -46.5 C 11.625 -44.09375 12.570312 -42.890625 14.46875 -42.890625 C 15.84375 -42.890625 16.875 -43.609375 17.5625 -45.046875 C 17.445312 -42.054688 16.5 -39.742188 14.71875 -38.109375 C 12.945312 -36.472656 10.96875 -35.65625 8.78125 -35.65625 C 6.601562 -35.65625 4.8125 -36.441406 3.40625 -38.015625 C 2 -39.597656 1.296875 -41.65625 1.296875 -44.1875 C 1.296875 -47.6875 2.644531 -50.828125 5.34375 -53.609375 C 8.039062 -56.398438 11.710938 -58.613281 16.359375 -60.25 C 21.015625 -61.882812 26.269531 -62.703125 32.125 -62.703125 C 37.695312 -62.703125 42.5625 -61.953125 46.71875 -60.453125 C 50.882812 -58.960938 54.128906 -56.851562 56.453125 -54.125 C 58.773438 -51.394531 59.9375 -48.222656 59.9375 -44.609375 C 59.9375 -40.015625 57.929688 -36.195312 53.921875 -33.15625 C 58.390625 -30.632812 61.742188 -27.476562 63.984375 -23.6875 C 66.222656 -19.894531 67.34375 -16.019531 67.34375 -12.0625 C 67.34375 -8.039062 66.46875 -4.535156 64.71875 -1.546875 C 62.96875 1.429688 60.613281 3.910156 57.65625 5.890625 C 54.695312 7.878906 51.394531 9.347656 47.75 10.296875 C 44.101562 11.242188 40.390625 11.71875 36.609375 11.71875 C 30.285156 11.71875 24.570312 10.507812 19.46875 8.09375 C 18.3125 9.695312 17.734375 11.160156 17.734375 12.484375 C 17.734375 13.285156 17.9375 13.890625 18.34375 14.296875 C 18.75 14.703125 19.179688 14.90625 19.640625 14.90625 C 20.097656 14.90625 20.507812 14.703125 20.875 14.296875 C 21.25 13.890625 21.4375 13.316406 21.4375 12.578125 C 21.726562 13.085938 21.914062 13.613281 22 14.15625 C 22.09375 14.707031 22.140625 15.242188 22.140625 15.765625 C 22.140625 17.429688 21.691406 18.953125 20.796875 20.328125 C 19.910156 21.703125 18.601562 22.390625 16.875 22.390625 Z M 18.4375 -6.71875 C 18.4375 -3.382812 19.695312 -0.398438 22.21875 2.234375 C 22.738281 1.773438 23.253906 1.34375 23.765625 0.9375 C 24.285156 0.539062 24.832031 0.140625 25.40625 -0.265625 C 25.925781 -1.691406 26.253906 -3.28125 26.390625 -5.03125 C 26.535156 -6.789062 26.609375 -8.242188 26.609375 -9.390625 L 26.609375 -17.65625 C 23.796875 -16.90625 21.726562 -15.507812 20.40625 -13.46875 C 19.09375 -11.4375 18.4375 -9.1875 18.4375 -6.71875 Z M 22.140625 -32.90625 C 22.140625 -31.925781 23.628906 -31.175781 26.609375 -30.65625 L 26.609375 -34.875 C 23.628906 -34.476562 22.140625 -33.820312 22.140625 -32.90625 Z M 23.765625 3.625 C 25.265625 4.707031 27.0625 5.59375 29.15625 6.28125 C 31.25 6.976562 33.644531 7.328125 36.34375 7.328125 C 38.875 7.328125 41.382812 6.953125 43.875 6.203125 C 46.375 5.453125 48.628906 4.316406 50.640625 2.796875 C 52.648438 1.273438 54.253906 -0.660156 55.453125 -3.015625 C 56.660156 -5.367188 57.265625 -8.179688 57.265625 -11.453125 C 57.265625 -15.179688 56.429688 -18.65625 54.765625 -21.875 C 53.109375 -25.09375 50.875 -27.789062 48.0625 -29.96875 C 46.28125 -29.28125 44.28125 -28.707031 42.0625 -28.25 C 39.851562 -27.789062 37.488281 -27.503906 34.96875 -27.390625 L 34.96875 -21.796875 C 40.019531 -21.210938 44.109375 -19.785156 47.234375 -17.515625 C 50.367188 -15.253906 51.9375 -12.429688 51.9375 -9.046875 C 51.9375 -6.859375 51.300781 -5.234375 50.03125 -4.171875 C 48.769531 -3.109375 47.363281 -2.578125 45.8125 -2.578125 C 44.382812 -2.578125 43.035156 -3.066406 41.765625 -4.046875 C 40.503906 -5.023438 39.875 -6.429688 39.875 -8.265625 C 40.332031 -7.921875 40.765625 -7.75 41.171875 -7.75 C 41.796875 -7.75 42.3125 -8.003906 42.71875 -8.515625 C 43.125 -9.035156 43.328125 -9.695312 43.328125 -10.5 C 43.328125 -12.164062 42.535156 -13.628906 40.953125 -14.890625 C 39.367188 -16.160156 37.375 -17.082031 34.96875 -17.65625 C 35.019531 -14.15625 35.175781 -11.5 35.4375 -9.6875 C 35.695312 -7.875 36.097656 -6.609375 36.640625 -5.890625 C 37.191406 -5.179688 37.894531 -4.65625 38.75 -4.3125 L 38.75 -4.046875 C 36.34375 -3.640625 33.789062 -2.71875 31.09375 -1.28125 C 28.394531 0.144531 25.953125 1.78125 23.765625 3.625 Z M 34.96875 -30.484375 C 36.570312 -30.660156 38.0625 -30.960938 39.4375 -31.390625 C 40.820312 -31.816406 42.0625 -32.320312 43.15625 -32.90625 C 41.882812 -33.476562 40.570312 -33.960938 39.21875 -34.359375 C 37.875 -34.765625 36.457031 -35.023438 34.96875 -35.140625 Z M 34.96875 -30.484375 "/></g></g><g style="fill:#ff3131;fill-opacity:1;"><g transform="translate(83.409657, 94.433434)"><path style="stroke:none" d="M 1.203125 -0.265625 C 2.578125 -0.722656 3.535156 -1.679688 4.078125 -3.140625 C 4.628906 -4.609375 4.90625 -6.945312 4.90625 -10.15625 L 4.90625 -38.921875 C 4.90625 -42.140625 4.628906 -44.476562 4.078125 -45.9375 C 3.535156 -47.40625 2.578125 -48.367188 1.203125 -48.828125 L 1.203125 -49.09375 L 28.078125 -49.09375 C 28.710938 -49.09375 29.398438 -49.148438 30.140625 -49.265625 C 30.890625 -49.378906 31.378906 -49.550781 31.609375 -49.78125 L 27.046875 -40.484375 L 26.78125 -40.5625 C 27.070312 -42.976562 25.410156 -44.1875 21.796875 -44.1875 L 12.65625 -44.1875 L 12.65625 -31.265625 L 12.828125 -31.265625 C 13.460938 -32.410156 14.296875 -33.328125 15.328125 -34.015625 C 16.359375 -34.703125 17.507812 -35.046875 18.78125 -35.046875 C 20.320312 -35.046875 21.78125 -34.703125 23.15625 -34.015625 C 24.539062 -33.328125 25.953125 -32.984375 27.390625 -32.984375 C 28.828125 -32.984375 29.890625 -33.53125 30.578125 -34.625 L 30.828125 -34.53125 C 30.429688 -32.925781 29.585938 -31.363281 28.296875 -29.84375 C 27.003906 -28.320312 25.4375 -27.5625 23.59375 -27.5625 C 22.625 -27.5625 21.675781 -27.757812 20.75 -28.15625 C 19.832031 -28.5625 18.898438 -28.960938 17.953125 -29.359375 C 17.003906 -29.765625 16.015625 -29.96875 14.984375 -29.96875 C 14.066406 -29.96875 13.289062 -29.65625 12.65625 -29.03125 L 12.65625 -5.171875 L 21.359375 -5.171875 C 23.765625 -5.171875 25.929688 -5.769531 27.859375 -6.96875 C 29.785156 -8.175781 31.148438 -9.785156 31.953125 -11.796875 L 32.296875 -11.71875 L 29.96875 0.953125 C 29.570312 0.316406 28.738281 0 27.46875 0 L 1.203125 0 Z M 1.203125 -0.265625 "/></g></g><g style="fill:#ff3131;fill-opacity:1;"><g transform="translate(113.371373, 94.433434)"><path style="stroke:none" d="M 12.0625 12.3125 C 9.414062 12.3125 7.503906 11.765625 6.328125 10.671875 C 5.148438 9.585938 4.5625 8.472656 4.5625 7.328125 C 4.5625 6.171875 4.890625 5.289062 5.546875 4.6875 C 6.210938 4.09375 6.945312 3.796875 7.75 3.796875 C 8.550781 3.796875 9.296875 4.050781 9.984375 4.5625 C 10.679688 5.082031 11.03125 5.914062 11.03125 7.0625 C 11.03125 7.582031 10.882812 8.128906 10.59375 8.703125 C 10.9375 8.816406 11.28125 8.882812 11.625 8.90625 C 11.96875 8.9375 12.285156 8.953125 12.578125 8.953125 C 15.617188 8.953125 18.015625 8.117188 19.765625 6.453125 C 21.515625 4.796875 22.773438 2.71875 23.546875 0.21875 C 24.328125 -2.28125 24.71875 -4.820312 24.71875 -7.40625 L 24.71875 -21.1875 C 21.613281 -21.300781 19.210938 -21.875 17.515625 -22.90625 C 15.828125 -23.9375 14.984375 -25.113281 14.984375 -26.4375 C 14.984375 -27.695312 15.785156 -28.859375 17.390625 -29.921875 C 19.003906 -30.984375 21.445312 -31.71875 24.71875 -32.125 L 24.71875 -33.84375 C 24.71875 -37.75 24.585938 -40.675781 24.328125 -42.625 C 24.066406 -44.582031 23.664062 -45.960938 23.125 -46.765625 C 22.582031 -47.566406 21.847656 -48.140625 20.921875 -48.484375 L 20.921875 -48.65625 C 23.453125 -48.882812 25.878906 -49.773438 28.203125 -51.328125 C 30.523438 -52.878906 32.09375 -54.800781 32.90625 -57.09375 C 30.257812 -57.15625 27.65625 -56.867188 25.09375 -56.234375 C 22.539062 -55.609375 20.242188 -54.707031 18.203125 -53.53125 C 16.171875 -52.351562 14.550781 -50.957031 13.34375 -49.34375 C 12.144531 -47.738281 11.546875 -46.019531 11.546875 -44.1875 C 11.546875 -43.144531 11.816406 -42.351562 12.359375 -41.8125 C 12.898438 -41.269531 13.546875 -41 14.296875 -41 C 14.929688 -41 15.535156 -41.15625 16.109375 -41.46875 C 16.679688 -41.78125 17.164062 -42.34375 17.5625 -43.15625 C 17.445312 -40.507812 16.554688 -38.296875 14.890625 -36.515625 C 13.234375 -34.734375 11.171875 -33.84375 8.703125 -33.84375 C 6.515625 -33.84375 4.734375 -34.585938 3.359375 -36.078125 C 1.984375 -37.578125 1.296875 -39.5625 1.296875 -42.03125 C 1.296875 -44.78125 2.15625 -47.257812 3.875 -49.46875 C 5.59375 -51.6875 7.875 -53.566406 10.71875 -55.109375 C 13.5625 -56.660156 16.707031 -57.835938 20.15625 -58.640625 C 23.601562 -59.453125 27.046875 -59.859375 30.484375 -59.859375 C 33.585938 -59.859375 36.457031 -59.597656 39.09375 -59.078125 L 39.1875 -58.90625 C 37.238281 -57.875 35.832031 -56.335938 34.96875 -54.296875 C 34.101562 -52.265625 33.570312 -49.882812 33.375 -47.15625 C 33.175781 -44.425781 33.078125 -41.484375 33.078125 -38.328125 L 33.078125 -32.03125 C 35.660156 -31.6875 38.039062 -31 40.21875 -29.96875 C 42.34375 -31.925781 44.09375 -34.140625 45.46875 -36.609375 C 46.851562 -39.078125 47.546875 -41.515625 47.546875 -43.921875 C 47.546875 -45.523438 47.242188 -46.710938 46.640625 -47.484375 C 46.035156 -48.265625 45.273438 -48.65625 44.359375 -48.65625 C 43.609375 -48.65625 42.859375 -48.410156 42.109375 -47.921875 C 41.367188 -47.441406 40.941406 -46.796875 40.828125 -45.984375 C 40.367188 -47.765625 40.46875 -49.488281 41.125 -51.15625 C 41.78125 -52.820312 42.828125 -54.1875 44.265625 -55.25 C 45.703125 -56.3125 47.335938 -56.84375 49.171875 -56.84375 C 50.210938 -56.84375 51.160156 -56.640625 52.015625 -56.234375 C 52.878906 -55.835938 53.515625 -55.238281 53.921875 -54.4375 C 55.921875 -57.300781 58.53125 -59.4375 61.75 -60.84375 C 64.96875 -62.25 68.472656 -62.753906 72.265625 -62.359375 L 72.34375 -61.921875 C 70.28125 -61.753906 68.359375 -60.847656 66.578125 -59.203125 C 64.796875 -57.566406 63.039062 -55.5 61.3125 -53 C 59.59375 -50.507812 57.828125 -47.785156 56.015625 -44.828125 C 54.210938 -41.867188 52.273438 -38.953125 50.203125 -36.078125 C 48.140625 -33.210938 45.816406 -30.628906 43.234375 -28.328125 C 46.109375 -26.492188 48.617188 -24.226562 50.765625 -21.53125 C 52.921875 -18.832031 54.816406 -15.960938 56.453125 -12.921875 C 58.085938 -9.878906 59.578125 -6.878906 60.921875 -3.921875 C 62.273438 -0.960938 63.582031 1.734375 64.84375 4.171875 C 66.113281 6.617188 67.453125 8.570312 68.859375 10.03125 C 70.265625 11.5 71.859375 12.234375 73.640625 12.234375 C 74.898438 12.234375 75.726562 11.875 76.125 11.15625 C 76.53125 10.4375 76.546875 9.71875 76.171875 9 C 75.804688 8.28125 75.046875 7.976562 73.890625 8.09375 C 75.390625 7.113281 76.882812 6.625 78.375 6.625 C 79.863281 6.625 81.15625 7.007812 82.25 7.78125 C 83.34375 8.5625 83.890625 9.554688 83.890625 10.765625 C 83.890625 12.203125 83.007812 13.394531 81.25 14.34375 C 79.5 15.289062 77.273438 15.765625 74.578125 15.765625 C 71.140625 15.765625 68.140625 15.03125 65.578125 13.5625 C 63.023438 12.101562 60.757812 10.148438 58.78125 7.703125 C 56.800781 5.265625 55.003906 2.554688 53.390625 -0.421875 C 51.785156 -3.410156 50.25 -6.441406 48.78125 -9.515625 C 47.320312 -12.585938 45.800781 -15.488281 44.21875 -18.21875 C 42.644531 -20.945312 40.910156 -23.257812 39.015625 -25.15625 C 37.234375 -23.945312 35.253906 -23 33.078125 -22.3125 L 33.078125 -10.15625 C 33.078125 -5.445312 33.476562 -1.800781 34.28125 0.78125 C 35.082031 3.363281 36.398438 5.113281 38.234375 6.03125 L 37.296875 8.015625 C 35.285156 7.265625 33.21875 7.035156 31.09375 7.328125 C 31.144531 6.691406 30.96875 6.144531 30.5625 5.6875 C 30.164062 5.226562 29.625 5 28.9375 5 C 27.5 5 26.78125 5.773438 26.78125 7.328125 C 26.78125 7.671875 26.867188 7.984375 27.046875 8.265625 C 24.742188 9.015625 22.375 9.875 19.9375 10.84375 C 17.5 11.820312 14.875 12.3125 12.0625 12.3125 Z M 21.625 -26.875 C 21.625 -25.894531 22.65625 -25.175781 24.71875 -24.71875 L 24.71875 -29.03125 C 22.65625 -28.507812 21.625 -27.789062 21.625 -26.875 Z M 33.078125 -25.40625 C 34.222656 -25.8125 35.398438 -26.382812 36.609375 -27.125 C 35.566406 -27.8125 34.390625 -28.390625 33.078125 -28.859375 Z M 33.078125 -25.40625 "/></g></g><g style="fill:#ff3131;fill-opacity:1;"><g transform="translate(172.005061, 94.433434)"><path style="stroke:none" d="M 21.875 -4.484375 C 23.539062 -4.484375 24.890625 -5.128906 25.921875 -6.421875 C 26.953125 -7.710938 27.710938 -9.429688 28.203125 -11.578125 C 28.691406 -13.734375 28.9375 -16.101562 28.9375 -18.6875 C 28.9375 -21.5625 28.648438 -24.519531 28.078125 -27.5625 C 27.503906 -30.601562 26.6875 -33.414062 25.625 -36 C 24.5625 -38.582031 23.28125 -40.660156 21.78125 -42.234375 C 20.289062 -43.816406 18.628906 -44.609375 16.796875 -44.609375 C 15.128906 -44.609375 13.765625 -43.960938 12.703125 -42.671875 C 11.640625 -41.378906 10.863281 -39.671875 10.375 -37.546875 C 9.882812 -35.421875 9.640625 -33.066406 9.640625 -30.484375 C 9.640625 -27.554688 9.925781 -24.570312 10.5 -21.53125 C 11.082031 -18.488281 11.90625 -15.675781 12.96875 -13.09375 C 14.03125 -10.507812 15.320312 -8.425781 16.84375 -6.84375 C 18.363281 -5.269531 20.039062 -4.484375 21.875 -4.484375 Z M 2.0625 -25.40625 C 2.0625 -33.101562 3.582031 -39.101562 6.625 -43.40625 C 9.675781 -47.707031 13.898438 -49.859375 19.296875 -49.859375 C 22.734375 -49.859375 25.742188 -48.796875 28.328125 -46.671875 C 30.910156 -44.554688 32.921875 -41.601562 34.359375 -37.8125 C 35.796875 -34.019531 36.515625 -29.597656 36.515625 -24.546875 C 36.515625 -19.546875 35.796875 -15.132812 34.359375 -11.3125 C 32.921875 -7.5 30.910156 -4.53125 28.328125 -2.40625 C 25.742188 -0.28125 22.734375 0.78125 19.296875 0.78125 C 15.785156 0.78125 12.738281 -0.296875 10.15625 -2.453125 C 7.570312 -4.609375 5.578125 -7.648438 4.171875 -11.578125 C 2.765625 -15.515625 2.0625 -20.125 2.0625 -25.40625 Z M 2.0625 -25.40625 "/></g></g><g style="fill:#ff3131;fill-opacity:1;"><g transform="translate(207.218985, 94.433434)"><path style="stroke:none" d="M 16.109375 0.78125 C 13.347656 0.78125 10.660156 0.234375 8.046875 -0.859375 C 5.441406 -1.953125 3.273438 -3.585938 1.546875 -5.765625 L 4.734375 -17.390625 L 5 -17.390625 C 5.34375 -14.578125 6.144531 -12.253906 7.40625 -10.421875 C 8.664062 -8.585938 10.15625 -7.222656 11.875 -6.328125 C 13.601562 -5.441406 15.300781 -5 16.96875 -5 C 18.914062 -5 20.59375 -5.585938 22 -6.765625 C 23.40625 -7.941406 24.109375 -9.648438 24.109375 -11.890625 C 24.109375 -13.785156 23.59375 -15.390625 22.5625 -16.703125 C 21.53125 -18.023438 20.195312 -19.21875 18.5625 -20.28125 C 16.925781 -21.34375 15.203125 -22.390625 13.390625 -23.421875 C 11.578125 -24.453125 9.851562 -25.597656 8.21875 -26.859375 C 6.582031 -28.128906 5.25 -29.625 4.21875 -31.34375 C 3.1875 -33.070312 2.671875 -35.140625 2.671875 -37.546875 C 2.671875 -41.222656 3.90625 -44.191406 6.375 -46.453125 C 8.84375 -48.722656 12.085938 -49.859375 16.109375 -49.859375 C 18.628906 -49.859375 20.75 -49.53125 22.46875 -48.875 C 24.195312 -48.21875 25.519531 -47.890625 26.4375 -47.890625 C 26.894531 -47.890625 27.238281 -48.03125 27.46875 -48.3125 L 27.90625 -36.4375 L 27.5625 -36.34375 C 26.644531 -38.8125 25.179688 -40.832031 23.171875 -42.40625 C 21.160156 -43.988281 19.003906 -44.78125 16.703125 -44.78125 C 14.984375 -44.78125 13.488281 -44.289062 12.21875 -43.3125 C 10.957031 -42.34375 10.328125 -40.851562 10.328125 -38.84375 C 10.328125 -37.125 10.84375 -35.644531 11.875 -34.40625 C 12.914062 -33.175781 14.238281 -32.054688 15.84375 -31.046875 C 17.457031 -30.046875 19.179688 -29.023438 21.015625 -27.984375 C 22.847656 -26.953125 24.566406 -25.789062 26.171875 -24.5 C 27.785156 -23.207031 29.109375 -21.6875 30.140625 -19.9375 C 31.171875 -18.1875 31.6875 -16.046875 31.6875 -13.515625 C 31.6875 -10.304688 30.941406 -7.640625 29.453125 -5.515625 C 27.960938 -3.390625 26.023438 -1.804688 23.640625 -0.765625 C 21.253906 0.265625 18.742188 0.78125 16.109375 0.78125 Z M 16.109375 0.78125 "/></g></g><g style="fill:#ff3131;fill-opacity:1;"><g transform="translate(236.750186, 94.433434)"><path style="stroke:none" d="M 1.203125 -0.265625 C 2.578125 -0.722656 3.535156 -1.679688 4.078125 -3.140625 C 4.628906 -4.609375 4.90625 -6.945312 4.90625 -10.15625 L 4.90625 -38.921875 C 4.90625 -42.140625 4.628906 -44.476562 4.078125 -45.9375 C 3.535156 -47.40625 2.578125 -48.367188 1.203125 -48.828125 L 1.203125 -49.09375 L 16.359375 -49.09375 L 16.359375 -48.828125 C 14.984375 -48.367188 14.019531 -47.40625 13.46875 -45.9375 C 12.925781 -44.476562 12.65625 -42.140625 12.65625 -38.921875 L 12.65625 -36.34375 L 27.46875 -36.34375 L 27.46875 -38.921875 C 27.46875 -42.140625 27.195312 -44.476562 26.65625 -45.9375 C 26.113281 -47.40625 25.148438 -48.367188 23.765625 -48.828125 L 23.765625 -49.09375 L 38.921875 -49.09375 L 38.921875 -48.828125 C 37.546875 -48.367188 36.582031 -47.40625 36.03125 -45.9375 C 35.488281 -44.476562 35.21875 -42.140625 35.21875 -38.921875 L 35.21875 -10.15625 C 35.21875 -6.945312 35.488281 -4.609375 36.03125 -3.140625 C 36.582031 -1.679688 37.546875 -0.722656 38.921875 -0.265625 L 38.921875 0 L 23.765625 0 L 23.765625 -0.265625 C 25.148438 -0.722656 26.113281 -1.679688 26.65625 -3.140625 C 27.195312 -4.609375 27.46875 -6.945312 27.46875 -10.15625 L 27.46875 -26.4375 L 12.65625 -26.4375 L 12.65625 -10.15625 C 12.65625 -6.945312 12.925781 -4.609375 13.46875 -3.140625 C 14.019531 -1.679688 14.984375 -0.722656 16.359375 -0.265625 L 16.359375 0 L 1.203125 0 Z M 12.65625 -28.15625 L 27.46875 -28.15625 L 27.46875 -30.3125 L 12.65625 -30.3125 Z M 12.65625 -28.15625 "/></g></g><g style="fill:#ff3131;fill-opacity:1;"><g transform="translate(273.513944, 94.433434)"><path style="stroke:none" d="M 1.203125 -0.265625 C 2.578125 -0.722656 3.535156 -1.679688 4.078125 -3.140625 C 4.628906 -4.609375 4.90625 -6.945312 4.90625 -10.15625 L 4.90625 -38.921875 C 4.90625 -42.140625 4.628906 -44.476562 4.078125 -45.9375 C 3.535156 -47.40625 2.578125 -48.367188 1.203125 -48.828125 L 1.203125 -49.09375 L 28.078125 -49.09375 C 28.710938 -49.09375 29.398438 -49.148438 30.140625 -49.265625 C 30.890625 -49.378906 31.378906 -49.550781 31.609375 -49.78125 L 27.046875 -40.484375 L 26.78125 -40.5625 C 27.070312 -42.976562 25.410156 -44.1875 21.796875 -44.1875 L 12.65625 -44.1875 L 12.65625 -31.265625 L 12.828125 -31.265625 C 13.460938 -32.410156 14.296875 -33.328125 15.328125 -34.015625 C 16.359375 -34.703125 17.507812 -35.046875 18.78125 -35.046875 C 20.320312 -35.046875 21.78125 -34.703125 23.15625 -34.015625 C 24.539062 -33.328125 25.953125 -32.984375 27.390625 -32.984375 C 28.828125 -32.984375 29.890625 -33.53125 30.578125 -34.625 L 30.828125 -34.53125 C 30.429688 -32.925781 29.585938 -31.363281 28.296875 -29.84375 C 27.003906 -28.320312 25.4375 -27.5625 23.59375 -27.5625 C 22.625 -27.5625 21.675781 -27.757812 20.75 -28.15625 C 19.832031 -28.5625 18.898438 -28.960938 17.953125 -29.359375 C 17.003906 -29.765625 16.015625 -29.96875 14.984375 -29.96875 C 14.066406 -29.96875 13.289062 -29.65625 12.65625 -29.03125 L 12.65625 -5.171875 L 21.359375 -5.171875 C 23.765625 -5.171875 25.929688 -5.769531 27.859375 -6.96875 C 29.785156 -8.175781 31.148438 -9.785156 31.953125 -11.796875 L 32.296875 -11.71875 L 29.96875 0.953125 C 29.570312 0.316406 28.738281 0 27.46875 0 L 1.203125 0 Z M 1.203125 -0.265625 "/></g></g><g style="fill:#ff3131;fill-opacity:1;"><g transform="translate(303.47566, 94.433434)"><path style="stroke:none" d="M 1.203125 -0.265625 C 2.578125 -0.722656 3.535156 -1.679688 4.078125 -3.140625 C 4.628906 -4.609375 4.90625 -6.945312 4.90625 -10.15625 L 4.90625 -38.921875 C 4.90625 -42.140625 4.628906 -44.476562 4.078125 -45.9375 C 3.535156 -47.40625 2.578125 -48.367188 1.203125 -48.828125 L 1.203125 -49.09375 L 22.140625 -49.09375 C 26.328125 -49.09375 29.679688 -48 32.203125 -45.8125 C 34.734375 -43.632812 36 -40.910156 36 -37.640625 C 36 -35.515625 35.484375 -33.617188 34.453125 -31.953125 C 33.421875 -30.285156 32.023438 -28.992188 30.265625 -28.078125 C 28.515625 -27.160156 26.578125 -26.726562 24.453125 -26.78125 C 26.347656 -24.425781 28.15625 -21.554688 29.875 -18.171875 C 31.601562 -14.785156 33.015625 -11.398438 34.109375 -8.015625 C 35.484375 -3.703125 37.085938 -1.117188 38.921875 -0.265625 L 38.921875 0 L 24.28125 0 L 24.203125 -0.265625 C 26.210938 -1.179688 26.785156 -3.445312 25.921875 -7.0625 C 25.234375 -9.988281 24.242188 -13 22.953125 -16.09375 C 21.660156 -19.195312 20.148438 -22.082031 18.421875 -24.75 C 16.703125 -27.425781 14.78125 -29.507812 12.65625 -31 L 12.65625 -10.15625 C 12.65625 -6.945312 12.925781 -4.609375 13.46875 -3.140625 C 14.019531 -1.679688 14.984375 -0.722656 16.359375 -0.265625 L 16.359375 0 L 1.203125 0 Z M 12.65625 -42.625 C 12.65625 -40.445312 13.070312 -38.507812 13.90625 -36.8125 C 14.738281 -35.125 15.84375 -33.804688 17.21875 -32.859375 C 18.601562 -31.910156 20.039062 -31.4375 21.53125 -31.4375 C 23.476562 -31.4375 24.953125 -32.007812 25.953125 -33.15625 C 26.960938 -34.300781 27.46875 -35.625 27.46875 -37.125 C 27.46875 -39.1875 26.617188 -40.90625 24.921875 -42.28125 C 23.234375 -43.664062 21.039062 -44.359375 18.34375 -44.359375 L 12.65625 -44.359375 Z M 12.65625 -42.625 "/></g></g><g clip-rule="nonzero" clip-path="url(#0e18b9851e)"><path style=" stroke:none;fill-rule:nonzero;fill:#ff3131;fill-opacity:1;" d="M 220.101562 27.582031 C 209.132812 29.601562 207.496094 31.238281 205.476562 42.203125 C 203.457031 31.238281 201.820312 29.601562 190.851562 27.582031 C 201.820312 25.5625 203.457031 23.925781 205.476562 12.957031 C 207.496094 23.925781 209.132812 25.5625 220.101562 27.582031 Z M 220.101562 27.582031 "/></g></g></svg>